<?xml version="1.0" encoding="UTF-8" ?>
<!DOCTYPE svg PUBLIC "-//W3C//DTD SVG 1.1//EN" "http://www.w3.org/Graphics/SVG/1.1/DTD/svg11.dtd">
<svg width="140pt" height="140pt" viewBox="0 0 140 140" version="1.1" xmlns="http://www.w3.org/2000/svg">
<path fill="#fefefe" d=" M 0.00 0.00 L 12.56 0.00 C 22.15 11.61 31.51 23.41 41.00 35.10 C 39.09 36.93 37.16 38.74 35.22 40.53 C 23.52 30.97 11.59 21.67 0.00 11.97 L 0.00 0.00 Z" />
<path fill="#040404" d=" M 12.56 0.00 L 129.64 0.00 C 119.54 11.52 109.84 23.41 99.92 35.09 C 101.71 36.78 103.50 38.47 105.27 40.18 C 116.81 30.79 128.55 21.64 140.00 12.15 L 140.00 124.20 C 128.27 115.75 116.34 107.59 104.57 99.20 C 103.00 100.76 101.42 102.32 99.86 103.90 C 109.83 115.91 119.50 128.18 129.69 140.00 L 12.60 140.00 C 21.83 127.78 31.32 115.75 40.62 103.58 C 38.83 101.64 37.02 99.71 35.22 97.79 C 23.45 106.49 11.68 115.19 0.00 124.00 L 0.00 11.97 C 11.59 21.67 23.52 30.97 35.22 40.53 C 37.16 38.74 39.09 36.93 41.00 35.10 C 31.51 23.41 22.15 11.61 12.56 0.00 Z" />
<path fill="#fefefe" d=" M 129.64 0.00 L 140.00 0.00 L 140.00 12.15 C 128.55 21.64 116.81 30.79 105.27 40.18 C 103.50 38.47 101.71 36.78 99.92 35.09 C 109.84 23.41 119.54 11.52 129.64 0.00 Z" />
<path fill="#fefefe" d=" M 15.23 1.21 C 52.44 1.16 89.65 1.18 126.87 1.20 C 117.33 12.53 107.82 23.88 98.19 35.13 C 100.51 37.36 102.85 39.57 105.21 41.76 C 116.55 32.67 127.89 23.59 139.18 14.45 C 139.05 50.28 139.29 86.12 138.91 121.94 C 127.45 113.79 115.94 105.71 104.43 97.64 C 102.34 99.70 100.27 101.78 98.21 103.87 C 107.86 115.50 117.39 127.21 127.00 138.87 C 89.72 138.87 52.44 138.63 15.17 138.56 C 24.14 126.78 33.37 115.20 42.23 103.34 C 39.85 101.02 37.61 98.56 35.33 96.14 C 23.90 104.60 12.53 113.14 1.09 121.59 C 1.12 85.90 1.07 50.20 1.12 14.50 C 12.44 23.79 23.86 32.96 35.31 42.11 C 37.78 39.81 40.24 37.50 42.67 35.17 C 33.49 23.87 24.33 12.56 15.23 1.21 Z" />
<path fill="#040404" d=" M 21.69 4.14 C 54.13 3.97 86.57 4.06 119.02 4.09 C 110.67 14.70 102.32 25.30 94.05 35.97 C 97.43 39.21 100.84 42.42 104.16 45.72 C 114.38 37.75 124.61 29.80 134.80 21.79 C 135.10 53.05 135.21 84.32 135.31 115.59 C 124.83 108.04 114.23 100.67 103.72 93.18 C 101.45 95.49 99.20 97.80 96.87 100.05 C 96.94 102.18 96.26 104.17 95.11 105.94 C 103.44 115.99 111.80 126.02 120.05 136.14 C 87.37 136.07 54.69 135.94 22.01 135.87 C 29.89 125.54 37.83 115.26 45.79 104.99 C 44.29 103.18 42.77 101.28 43.14 98.76 C 40.76 96.25 38.36 93.76 35.93 91.31 C 25.52 99.15 15.19 107.10 4.78 114.94 C 4.86 84.11 4.80 53.29 4.81 22.46 C 15.19 30.56 25.53 38.69 35.87 46.83 C 39.70 43.19 43.42 39.45 47.28 35.84 C 38.77 25.26 30.32 14.62 21.69 4.14 Z" />
<path fill="#fefefe" d=" M 30.44 8.24 C 57.14 8.21 83.84 8.20 110.54 8.25 C 103.14 17.64 95.76 27.05 88.40 36.46 C 93.53 41.40 98.56 46.45 103.72 51.37 C 112.66 44.47 121.57 37.53 130.54 30.67 C 130.79 50.78 130.81 70.89 130.90 91.01 C 130.81 96.55 131.39 102.10 130.94 107.64 C 121.92 100.83 112.84 94.09 103.81 87.28 C 100.54 90.45 97.37 93.72 94.12 96.91 C 87.33 96.90 81.29 93.61 75.19 91.07 C 79.08 89.58 83.00 88.20 86.97 86.95 C 89.70 85.82 92.49 87.39 95.26 87.42 C 96.46 86.80 96.71 85.40 97.27 84.30 C 96.46 83.43 95.65 82.57 94.85 81.70 C 95.23 79.37 94.72 76.43 91.99 75.91 C 89.37 76.96 88.79 80.31 86.15 81.34 C 82.86 83.02 79.41 84.38 76.22 86.27 C 75.51 85.92 74.80 85.56 74.09 85.21 C 77.01 82.58 81.86 81.51 83.29 77.55 C 83.87 72.12 85.63 66.90 87.71 61.88 C 88.70 55.29 90.40 47.75 86.02 41.97 C 80.13 35.47 70.04 34.04 62.15 37.46 C 58.81 39.03 55.16 41.07 53.89 44.78 C 51.73 49.32 51.84 54.50 53.16 59.27 C 52.51 62.48 54.89 65.06 55.39 68.11 C 56.28 70.95 55.73 73.97 56.23 76.86 C 58.51 80.03 62.09 81.96 65.03 84.46 C 65.24 85.58 65.08 87.01 66.30 87.62 C 73.07 90.92 79.95 93.99 86.91 96.88 C 89.28 97.93 91.93 97.89 94.44 98.37 C 94.66 100.30 97.50 103.72 94.05 103.94 C 92.24 103.80 91.02 102.29 89.63 101.31 C 87.44 99.42 84.75 98.29 82.11 97.17 C 80.29 98.26 78.54 96.89 76.91 96.14 C 68.93 91.94 60.81 87.92 52.35 84.79 C 50.10 84.66 47.94 85.94 45.63 85.79 C 45.69 84.07 45.79 82.36 45.92 80.64 C 46.23 80.40 46.87 79.91 47.19 79.66 C 47.58 78.53 48.02 77.41 48.52 76.33 C 49.68 75.91 50.87 76.46 52.01 76.65 C 54.06 81.59 59.47 83.94 64.04 85.86 C 61.81 82.73 57.27 81.53 54.79 78.34 C 53.23 76.10 50.70 75.07 48.03 74.93 C 45.66 78.45 42.24 83.49 45.90 87.32 C 48.77 87.21 51.59 84.99 54.41 86.48 C 57.85 87.90 61.24 89.45 64.63 91.00 C 59.17 93.52 53.51 95.55 47.76 97.30 C 43.88 93.50 40.17 89.54 36.36 85.68 C 27.33 92.74 18.20 99.67 9.14 106.70 C 9.13 81.45 9.13 56.20 9.08 30.95 C 16.77 36.88 24.41 42.87 32.06 48.85 C 33.58 49.97 34.96 51.43 36.81 52.01 C 42.31 46.93 47.53 41.56 52.92 36.38 C 45.51 26.93 37.94 17.61 30.44 8.24 Z" />
<path fill="#040404" d=" M 66.62 17.28 C 67.80 15.25 68.97 13.21 70.14 11.18 C 71.34 13.19 72.54 15.20 73.75 17.20 C 75.88 17.21 78.01 17.23 80.14 17.25 C 79.14 19.07 77.73 20.74 77.19 22.76 C 78.01 24.52 79.10 26.14 80.11 27.79 C 78.01 27.88 75.89 27.87 73.79 28.15 C 72.30 29.91 71.33 32.04 70.09 33.97 C 69.02 32.05 67.93 30.14 66.88 28.21 C 64.75 28.04 62.62 27.88 60.48 27.76 C 61.52 26.10 62.54 24.43 63.56 22.76 C 62.56 20.88 61.52 19.03 60.47 17.18 C 62.52 17.21 64.57 17.23 66.62 17.28 Z" />
<path fill="#fefefe" d=" M 56.17 43.39 C 63.04 34.55 77.91 34.85 85.27 42.89 C 88.11 47.22 88.11 52.71 87.43 57.65 C 86.50 55.53 85.18 53.63 84.02 51.63 C 84.55 51.57 85.60 51.46 86.13 51.40 C 85.49 51.39 84.22 51.36 83.59 51.35 C 83.86 55.13 83.92 59.24 86.83 62.10 C 85.21 63.80 83.48 65.39 81.64 66.85 C 82.06 67.58 82.49 68.30 82.92 69.03 L 84.52 66.77 C 84.05 68.31 83.12 71.37 82.66 72.90 C 82.23 71.54 81.93 70.13 81.80 68.71 C 80.93 68.33 80.07 67.97 79.20 67.61 C 78.32 69.03 77.60 70.53 76.95 72.07 C 75.81 72.25 74.67 72.43 73.53 72.61 C 72.06 73.60 70.43 74.28 68.79 74.90 C 68.74 74.17 68.66 72.72 68.61 71.99 L 67.76 71.92 C 67.78 73.96 67.83 76.00 67.92 78.05 C 69.20 77.15 70.35 76.09 71.35 74.88 L 70.59 77.20 C 72.05 77.15 73.51 77.12 74.97 77.13 C 75.91 76.70 76.85 76.26 77.78 75.82 C 77.60 76.79 77.22 78.74 77.04 79.71 C 77.75 78.84 79.19 77.09 79.90 76.22 C 80.10 77.36 80.33 78.50 80.57 79.64 C 77.50 81.42 74.64 83.65 71.23 84.77 C 71.66 86.08 72.24 87.34 72.71 88.65 C 70.05 88.70 67.14 87.40 66.09 84.85 L 69.46 85.74 C 69.78 85.25 70.43 84.27 70.75 83.78 C 68.90 84.70 67.21 84.53 65.70 83.28 C 63.09 81.25 60.46 79.25 57.77 77.31 C 57.96 73.78 57.43 70.27 56.23 66.95 C 58.25 67.86 60.27 68.77 62.25 69.76 C 61.97 70.61 61.40 72.32 61.12 73.17 C 60.77 71.83 60.50 70.47 60.32 69.10 C 59.90 69.44 59.06 70.11 58.64 70.45 C 59.21 72.82 59.68 75.21 60.03 77.63 L 60.74 77.62 C 60.77 76.88 60.82 75.41 60.85 74.67 C 62.85 75.57 64.83 76.50 66.78 77.49 C 66.96 76.79 67.30 75.39 67.47 74.70 C 67.23 74.16 66.73 73.08 66.48 72.55 C 65.22 72.37 63.97 72.10 62.74 71.76 C 63.29 70.42 63.70 69.03 64.00 67.62 C 62.04 67.09 60.03 66.71 58.08 66.16 C 56.24 65.25 55.42 63.23 54.17 61.72 C 55.91 58.62 56.16 55.04 55.67 51.57 C 55.23 53.88 54.91 56.20 54.49 58.51 C 52.65 53.59 53.29 47.77 56.17 43.39 Z" />
<path fill="#040404" d=" M 59.91 54.81 C 62.53 54.47 65.18 54.86 67.81 54.73 C 67.88 56.19 67.91 57.65 67.98 59.11 C 68.60 60.90 70.71 59.85 71.93 59.44 C 71.87 58.12 72.02 56.84 72.37 55.59 C 75.29 55.42 78.38 54.31 81.20 55.55 C 83.80 56.30 83.80 59.93 82.65 61.87 C 81.41 64.56 78.00 62.68 75.91 62.45 C 77.84 62.49 79.78 62.52 81.71 62.55 C 81.75 58.51 77.24 61.44 75.01 59.71 C 74.68 60.09 74.01 60.85 73.68 61.23 C 72.96 61.28 72.25 61.36 71.55 61.47 C 72.45 63.37 72.55 65.45 72.35 67.50 C 71.79 67.39 70.67 67.16 70.11 67.04 C 69.49 67.25 68.25 67.65 67.62 67.85 C 67.50 65.69 67.80 63.53 68.46 61.47 C 67.95 61.41 67.44 61.36 66.92 61.33 C 64.40 62.07 61.80 63.21 59.12 62.61 C 56.14 61.13 56.65 55.72 59.91 54.81 Z" />
<path fill="#040404" d=" M 120.82 55.45 C 121.70 57.95 122.48 60.48 123.20 63.04 C 122.33 61.87 121.49 60.68 120.67 59.49 C 117.26 59.48 113.85 59.48 110.45 59.47 C 113.69 62.87 116.88 66.32 120.08 69.76 C 116.77 72.49 113.55 75.31 110.28 78.09 C 114.36 78.02 118.44 77.91 122.52 77.98 C 123.36 76.72 124.21 75.47 125.20 74.32 C 124.43 77.51 123.19 80.55 122.18 83.65 C 122.01 82.76 121.84 81.87 121.67 80.98 C 116.18 81.04 110.70 81.08 105.22 80.93 C 109.23 77.70 113.05 74.24 117.00 70.93 C 113.07 66.68 109.05 62.51 105.08 58.31 C 110.16 58.28 115.24 58.31 120.32 58.28 C 120.45 57.57 120.69 56.16 120.82 55.45 Z" />
<path fill="#040404" d=" M 21.14 58.29 C 24.63 58.41 28.12 58.34 31.61 58.41 C 30.68 58.64 28.82 59.09 27.89 59.31 C 27.88 60.02 27.85 61.43 27.84 62.14 C 31.27 62.73 35.60 63.14 37.27 66.71 C 38.06 69.12 38.01 72.18 36.10 74.07 C 34.03 76.34 30.72 76.52 27.89 77.05 C 27.87 77.73 27.84 79.08 27.83 79.76 C 29.10 80.04 30.36 80.37 31.61 80.74 C 27.92 80.94 24.21 81.08 20.54 80.60 C 21.60 80.43 23.70 80.08 24.75 79.90 C 24.73 79.20 24.71 77.80 24.69 77.10 C 21.81 76.54 18.31 76.28 16.46 73.65 C 14.67 70.87 14.79 66.58 17.51 64.43 C 19.59 62.76 22.42 62.69 24.91 62.11 C 25.32 59.46 23.52 58.58 21.14 58.29 Z" />
<path fill="#fefefe" d=" M 57.61 59.54 C 60.66 58.95 63.85 59.33 66.68 60.58 C 63.73 61.64 58.92 64.09 57.61 59.54 Z" />
<path fill="#fefefe" d=" M 19.53 64.61 C 21.07 63.61 22.94 63.36 24.65 62.79 C 24.76 67.32 24.76 71.85 24.63 76.38 C 22.65 75.73 20.37 75.45 18.83 73.89 C 17.23 71.08 17.07 66.98 19.53 64.61 Z" />
<path fill="#fefefe" d=" M 27.87 62.84 C 29.73 63.34 31.79 63.48 33.37 64.69 C 35.37 66.95 35.25 70.39 34.20 73.05 C 33.03 75.45 30.11 75.65 27.85 76.31 C 27.86 71.82 27.89 67.33 27.87 62.84 Z" />
<path fill="#fefefe" d=" M 78.17 73.41 C 77.33 72.20 77.61 71.49 79.01 71.30 C 79.81 72.48 79.53 73.19 78.17 73.41 Z" />
<path fill="#fefefe" d=" M 80.97 75.83 C 81.29 75.75 81.93 75.60 82.25 75.52 C 82.69 76.94 82.40 77.97 81.36 78.62 C 81.26 77.92 81.07 76.53 80.97 75.83 Z" />
<path fill="#fefefe" d=" M 89.70 81.02 C 90.69 79.45 91.74 77.86 93.48 77.01 C 93.60 79.14 93.93 81.29 93.59 83.42 C 92.29 84.63 90.66 84.17 89.13 83.82 C 84.91 86.54 79.85 87.31 75.31 89.34 C 74.52 88.94 73.73 88.54 72.95 88.13 C 78.71 86.19 84.06 83.26 89.70 81.02 Z" />
<path fill="#fefefe" d=" M 73.37 86.37 C 73.66 86.66 73.66 86.66 73.37 86.37 Z" />
<path fill="#fefefe" d=" M 63.10 92.64 C 64.15 92.61 65.98 91.13 66.69 92.26 C 65.33 93.53 63.43 94.19 61.77 95.01 C 61.52 94.20 61.71 93.50 62.34 92.92 L 63.10 92.64 Z" />
<path fill="#fefefe" d=" M 53.16 102.11 C 58.36 98.58 64.01 95.84 69.76 93.34 C 74.77 96.00 79.86 98.52 84.88 101.17 C 87.21 102.13 87.75 104.84 89.36 106.55 C 96.31 114.94 103.42 123.20 110.38 131.58 C 84.04 131.57 57.70 131.41 31.35 131.45 C 38.50 121.58 46.21 112.11 53.16 102.11 Z" />
<path fill="#fefefe" d=" M 50.30 97.44 C 53.34 96.81 56.24 95.71 59.05 94.43 C 59.58 94.92 60.10 95.40 60.63 95.88 C 56.56 96.71 54.51 100.85 50.52 101.88 C 49.98 103.30 50.09 107.02 47.65 105.88 C 46.69 104.39 45.78 102.88 44.75 101.45 C 45.04 100.20 45.35 98.95 45.79 97.75 C 46.95 98.27 48.06 98.90 49.17 99.53 C 49.45 99.01 50.02 97.97 50.30 97.44 Z" />
<path fill="#fefefe" d=" M 0.00 124.00 C 11.68 115.19 23.45 106.49 35.22 97.79 C 37.02 99.71 38.83 101.64 40.62 103.58 C 31.32 115.75 21.83 127.78 12.60 140.00 L 0.00 140.00 L 0.00 124.00 Z" />
<path fill="#fefefe" d=" M 99.86 103.90 C 101.42 102.32 103.00 100.76 104.57 99.20 C 116.34 107.59 128.27 115.75 140.00 124.20 L 140.00 140.00 L 129.69 140.00 C 119.50 128.18 109.83 115.91 99.86 103.90 Z" />
<path fill="#040404" d=" M 58.49 104.47 C 62.10 104.18 65.74 104.16 69.36 104.33 C 68.53 104.57 66.86 105.04 66.02 105.27 C 66.08 108.53 66.08 111.79 66.10 115.06 C 69.50 111.87 72.72 108.49 76.20 105.39 C 75.02 105.09 73.85 104.78 72.68 104.46 C 75.82 104.42 78.96 104.31 82.11 104.20 C 76.12 104.82 73.00 110.43 68.77 113.99 C 72.13 118.17 75.66 122.22 79.07 126.37 C 79.85 126.55 81.41 126.90 82.19 127.07 C 78.66 127.38 75.09 127.44 71.58 127.02 C 72.44 126.86 74.17 126.55 75.03 126.40 C 71.98 123.01 69.01 119.54 66.11 116.02 C 66.07 119.47 66.08 122.93 66.04 126.39 C 67.12 126.61 68.21 126.83 69.29 127.10 C 65.78 127.36 62.24 127.40 58.73 127.06 C 59.62 126.89 61.40 126.55 62.29 126.38 C 62.25 119.37 62.21 112.37 62.31 105.36 C 61.03 105.09 59.75 104.79 58.49 104.47 Z" />
</svg>
